<?xml version="1.0" standalone="no"?>
<!DOCTYPE svg PUBLIC "-//W3C//DTD SVG 20010904//EN"
 "http://www.w3.org/TR/2001/REC-SVG-20010904/DTD/svg10.dtd">
<svg version="1.0" xmlns="http://www.w3.org/2000/svg"
 width="520.000000pt" height="520.000000pt" viewBox="0 0 520.000000 520.000000"
 preserveAspectRatio="xMidYMid meet">
<metadata>
Created by potrace 1.11, written by Peter Selinger 2001-2013
</metadata>
<g transform="translate(0.000000,520.000000) scale(0.100000,-0.100000)"
fill="#000000" stroke="none">
<path d="M2399 5026 c-2 -2 -29 -7 -59 -10 -53 -6 -157 -22 -210 -31 -25 -5
-246 -62 -265 -68 -5 -2 -17 -6 -25 -9 -8 -3 -44 -16 -80 -29 -36 -12 -98 -38
-138 -56 -39 -18 -74 -33 -76 -33 -22 0 -344 -196 -411 -251 -276 -227 -408
-369 -569 -613 -334 -505 -459 -1108 -361 -1741 13 -84 59 -264 92 -360 90
-262 204 -474 375 -702 83 -111 286 -320 399 -411 365 -293 825 -483 1279
-529 143 -15 546 -7 601 11 8 3 32 7 54 10 278 35 660 183 931 362 105 69 86
55 204 150 314 252 566 592 723 974 30 73 81 222 92 270 68 289 84 420 80 675
-4 282 -36 477 -118 725 -57 173 -127 326 -219 484 -34 57 -155 234 -173 252
-6 6 -33 39 -60 73 -48 58 -210 222 -285 286 -327 282 -793 491 -1230 551 -24
3 -56 8 -70 11 -29 5 -476 13 -481 9z m321 -1080 c454 -53 733 -252 790 -563
20 -114 14 -256 -16 -376 -54 -211 -228 -412 -449 -518 -33 -16 -66 -29 -72
-29 -16 0 -18 7 17 -85 17 -43 51 -156 76 -249 83 -318 121 -404 190 -426 73
-24 138 21 385 265 109 107 174 165 188 165 39 0 56 -45 56 -145 0 -80 -3 -97
-32 -157 -91 -193 -258 -357 -468 -458 -120 -59 -204 -81 -299 -82 -94 0 -155
15 -211 53 -101 68 -155 189 -190 424 -11 71 -34 244 -40 295 -11 102 -23 174
-49 299 -7 30 -24 51 -44 51 -29 0 -122 53 -151 86 -50 57 -60 129 -25 182 25
38 115 74 192 76 67 3 154 -16 181 -37 11 -9 27 2 77 57 85 90 132 186 149
300 29 199 -13 347 -126 438 -104 84 -176 102 -404 102 -268 0 -392 -31 -651
-162 -175 -88 -240 -102 -270 -56 -13 18 -11 28 18 84 80 154 325 332 572 415
73 24 181 46 261 52 39 3 71 7 73 8 5 4 218 -3 272 -9z m-399 -562 c14 -17 18
-205 5 -289 -3 -22 -8 -58 -11 -79 -10 -72 -54 -264 -109 -478 -92 -357 -89
-335 -92 -690 -2 -352 -8 -387 -68 -456 -50 -57 -259 -150 -331 -146 -54 3
-63 5 -82 21 -63 56 -84 151 -78 363 4 163 7 186 31 315 103 539 341 1173 509
1354 78 84 191 127 226 85z"/>
</g>
</svg>
